<svg width="41" height="40" viewBox="0 0 41 40" fill="none" xmlns="http://www.w3.org/2000/svg">
<path fill-rule="evenodd" clip-rule="evenodd" d="M18.0134 1.38385C15.5159 1.45457 12.6601 1.66653 11.8413 1.84193C10.8746 2.04905 10.0802 2.66909 9.6033 3.58857C8.42894 5.85309 7.3909 9.16561 6.71678 12.8C6.23286 15.4089 5.84546 18.9139 5.83698 20.76C5.83374 21.4629 5.84254 21.5717 5.92594 21.86C6.27506 23.0667 7.1685 23.9649 8.40186 24.349L8.75338 24.4585L11.4834 24.4711C13.4513 24.4801 14.2134 24.4961 14.2134 24.5281C14.2134 24.5525 14.0529 25.1322 13.8567 25.8163C13.062 28.5871 12.6613 30.2875 12.3145 32.36C12.0155 34.1464 11.8061 36.3026 11.8811 36.8226C11.9912 37.5875 12.5453 38.2437 13.3206 38.5277C13.651 38.6487 14.3315 38.6474 14.6702 38.5251C15.0313 38.3948 15.1813 38.2936 16.1405 37.5335C18.8711 35.3697 21.2459 33.2487 23.8355 30.661C27.0858 27.4132 29.7623 24.3099 31.9955 21.2C33.0059 19.7929 34.4113 17.5637 34.6259 17.0278C35.0157 16.0538 34.8894 14.9263 34.2932 14.0597C33.9891 13.6177 33.4051 13.1573 32.8839 12.9487C32.2344 12.6886 29.8666 12.3303 27.9134 12.1965C27.5174 12.1693 27.1879 12.143 27.1811 12.138C27.1744 12.133 27.7189 10.8401 28.3911 9.26493C29.0634 7.68973 29.6537 6.26125 29.703 6.09049C29.7784 5.82897 29.7926 5.68225 29.793 5.16001C29.7935 4.43437 29.7457 4.20825 29.4765 3.66001C29.0258 2.74237 28.3111 2.15245 27.3421 1.89833C26.8516 1.76969 24.5337 1.53117 22.8934 1.44049C22.1364 1.39865 18.8413 1.36041 18.0134 1.38385ZM17.36 3.07949C15.2016 3.15341 12.6055 3.36393 12.0939 3.50657C11.4647 3.68197 11.2198 3.99193 10.6139 5.38001C8.97338 9.13789 7.8999 14.2401 7.53002 20.0372C7.46674 21.0295 7.4901 21.3637 7.64626 21.6973C7.8457 22.1236 8.23762 22.4927 8.69882 22.6888L8.91338 22.78L12.2566 22.8L15.5997 22.82L15.7966 22.9402C16.018 23.0755 16.2134 23.3958 16.2134 23.6237C16.2134 23.6948 16.1502 23.9661 16.073 24.2265C14.8372 28.3959 14.3592 30.3007 13.9766 32.58C13.7059 34.1931 13.4791 36.4697 13.5673 36.69C13.6217 36.8259 13.8331 36.9597 13.9934 36.9597C14.1601 36.9597 14.2674 36.8869 15.1856 36.1513C19.0145 33.0833 22.4064 29.9071 25.5571 26.4398C28.6151 23.0743 31.023 19.9135 32.7003 17.0629C33.1328 16.328 33.1891 16.1706 33.1649 15.7651C33.1338 15.2461 32.848 14.801 32.3996 14.5733C31.8287 14.2833 29.197 13.9299 26.6334 13.799C25.8263 13.7578 25.7358 13.7457 25.5413 13.6531C25.2535 13.516 25.122 13.3156 25.1007 12.9813L25.0848 12.7319L26.535 9.33597C27.3327 7.46817 28.0215 5.84101 28.0657 5.72001C28.1817 5.40245 28.1763 4.89997 28.0532 4.58001C27.9346 4.27177 27.8237 4.10061 27.6075 3.89205C27.3112 3.60625 27.0741 3.52601 26.2022 3.41653C25.3357 3.30769 23.9279 3.18045 22.9134 3.11925C21.9947 3.06389 18.5387 3.03909 17.36 3.07949Z" fill="#4DA2FF"/>
</svg>
