<svg width="16" height="16" viewBox="0 0 16 16" color="#F7F7F8" fill="currentColor" xmlns="http://www.w3.org/2000/svg">
<g clip-path="url(#clip0_264_11108)">
<g clip-path="url(#clip1_264_11108)">
<path fill-rule="evenodd" clip-rule="evenodd" d="M1.17363 0.544215C1.02242 0.575175 0.884705 0.683111 0.815073 0.825239C0.783569 0.889559 0.776449 0.928951 0.776305 1.04001C0.776145 1.16198 0.781089 1.18468 0.824129 1.25996C0.872545 1.34466 1.27618 1.81102 2.03928 2.66398C3.60319 4.41204 5.21269 6.12759 6.7201 7.65324L7.28808 8.22809L6.79919 8.71006C5.11634 10.3691 3.12616 12.2193 1.17613 13.9377C0.920929 14.1626 0.687697 14.3745 0.657825 14.4085C0.488177 14.6018 0.499361 14.8992 0.683169 15.083C0.781857 15.1817 0.880945 15.2214 1.03213 15.2228C1.2281 15.2246 1.25986 15.2037 1.8489 14.6842C3.82587 12.9407 5.53568 11.3534 7.34813 9.57917L8.00013 8.94092L8.65213 9.57921C10.4827 11.3714 12.2218 12.9849 14.2161 14.7418C14.7354 15.1992 14.7752 15.2246 14.9681 15.2228C15.1193 15.2214 15.2184 15.1817 15.3171 15.083C15.4527 14.9474 15.5021 14.7086 15.4288 14.5428C15.3809 14.4345 15.3293 14.383 14.8241 13.9377C12.8694 12.2152 10.896 10.3805 9.20122 8.71009L8.71227 8.22817L9.28819 7.64513C10.772 6.14295 12.3764 4.43367 13.889 2.74367C14.7289 1.80519 15.1265 1.34692 15.1761 1.25999C15.2194 1.1843 15.2241 1.16258 15.2233 1.04001C15.2227 0.930087 15.2151 0.888791 15.184 0.824679C15.0387 0.525335 14.6538 0.442455 14.4086 0.657703C14.3746 0.687575 14.1628 0.920807 13.9379 1.17601C12.1537 3.20058 10.2434 5.2517 8.59613 6.9115L8.00013 7.51201L7.40413 6.91138C5.74768 5.24206 3.85023 3.20479 2.0624 1.17601C1.83751 0.920807 1.62567 0.687575 1.59163 0.657703C1.47855 0.558439 1.31757 0.514727 1.17363 0.544215Z" fill="currentColor"/>
</g>
</g>
<defs>
<clipPath id="clip0_264_11108">
<rect width="16" height="16" fill="#F7F7F8"/>
</clipPath>
<clipPath id="clip1_264_11108">
<rect width="16" height="16" fill="#F7F7F8"/>
</clipPath>
</defs>
</svg>
