<?xml version="1.0" encoding="utf-8"?>
<svg xmlns="http://www.w3.org/2000/svg" width="40" height="40" viewBox="0 0 40 40" fill="none">
<g clip-path="url(#clip0_2161_2030)">
<path fill-rule="evenodd" clip-rule="evenodd" d="M20 40C31.0457 40 40 31.0457 40 20C40 8.9543 31.0457 0 20 0C8.9543 0 0 8.9543 0 20C0 31.0457 8.9543 40 20 40ZM23.1487 11.0123C24.7207 11.2862 26.224 11.7678 27.6265 12.4194C27.6388 12.4245 27.6489 12.4338 27.6549 12.4459C30.1399 16.1497 31.3664 20.3296 30.9081 25.1402C30.907 25.1504 30.9039 25.1602 30.8988 25.169C30.8937 25.1779 30.8869 25.1854 30.8787 25.1912C29.2119 26.4424 27.3519 27.3941 25.3771 28.0065C25.3631 28.0107 25.3482 28.0105 25.3345 28.0058C25.3207 28.001 25.3088 27.992 25.3001 27.98C24.8849 27.3936 24.5071 26.7759 24.1772 26.1271C24.1728 26.1182 24.1701 26.1084 24.1696 26.0982C24.169 26.0882 24.1706 26.0782 24.1742 26.0687C24.1777 26.0594 24.1832 26.0509 24.1903 26.0439C24.1973 26.0369 24.2056 26.0314 24.2147 26.028C24.8134 25.7995 25.3835 25.5246 25.9316 25.1997C25.9414 25.1938 25.9496 25.1854 25.9555 25.1754C25.9613 25.1654 25.9646 25.154 25.9653 25.1423C25.9657 25.1306 25.9635 25.1189 25.9586 25.1084C25.9536 25.0977 25.9463 25.0886 25.9371 25.0817C25.8208 24.9939 25.7061 24.9022 25.5961 24.8097C25.5861 24.8015 25.5739 24.7962 25.5611 24.7948C25.5484 24.7933 25.5354 24.7955 25.5238 24.8013C21.9663 26.4671 18.0678 26.4671 14.4681 24.8013C14.4565 24.7959 14.4438 24.7939 14.4311 24.7955C14.4185 24.7972 14.4065 24.8025 14.3966 24.8106C14.2866 24.9022 14.1711 24.9939 14.0556 25.0817C14.0466 25.0887 14.0394 25.098 14.0346 25.1087C14.0299 25.1194 14.0278 25.1311 14.0285 25.1427C14.0291 25.1545 14.0328 25.1658 14.0387 25.1758C14.0448 25.1858 14.0531 25.194 14.063 25.1997C14.613 25.522 15.1868 25.7992 15.7789 26.0289C15.7881 26.0322 15.7965 26.0376 15.8035 26.0445C15.8105 26.0515 15.8159 26.0599 15.8195 26.0693C15.823 26.0785 15.8246 26.0885 15.8241 26.0985C15.8236 26.1085 15.821 26.1182 15.8165 26.1271C15.4929 26.7764 15.1169 27.3965 14.6927 27.981C14.6838 27.9926 14.6716 28.0011 14.6579 28.0055C14.6441 28.0099 14.6295 28.0099 14.6158 28.0055C12.6444 27.3915 10.7873 26.4401 9.12229 25.1912C9.11438 25.185 9.10779 25.1772 9.1029 25.1682C9.09801 25.1594 9.09494 25.1495 9.09387 25.1394C8.7098 20.9784 9.4917 16.7645 12.3443 12.444C12.3513 12.4326 12.3615 12.4237 12.3736 12.4185C13.777 11.7659 15.2803 11.2843 16.8514 11.0104C16.8656 11.0081 16.8801 11.0103 16.893 11.0167C16.906 11.0231 16.9167 11.0335 16.9239 11.0463C17.1331 11.4224 17.322 11.8102 17.4894 12.2079C19.1566 11.9513 20.8517 11.9513 22.519 12.2079C22.6694 11.849 22.8838 11.3948 23.0763 11.0463C23.0835 11.0336 23.0942 11.0235 23.1073 11.0174C23.1202 11.0113 23.1347 11.0095 23.1487 11.0123ZM14.3774 20.3579C14.3774 21.596 15.2711 22.6055 16.3546 22.6055C17.4555 22.6055 18.3317 21.597 18.3317 20.3579C18.3492 19.1274 17.4638 18.1103 16.3546 18.1103C15.2537 18.1103 14.3774 19.1189 14.3774 20.3579ZM21.6876 20.3579C21.6876 21.596 22.5804 22.6055 23.6648 22.6055C24.7749 22.6055 25.642 21.597 25.642 20.3579C25.6594 19.1274 24.7739 18.1103 23.6648 18.1103C22.563 18.1103 21.6876 19.1189 21.6876 20.3579Z" fill="#F7F7F8"/>
</g>
<defs>
<clipPath id="clip0_2161_2030">
<rect width="40" height="40" fill="white"/>
</clipPath>
</defs>
</svg>