<?xml version="1.0" encoding="utf-8"?>
<svg xmlns="http://www.w3.org/2000/svg" width="16" height="16" viewBox="0 0 16 16" color="#F7F7F8" fill="currentColor">
<path fill-rule="evenodd" clip-rule="evenodd" d="M0.904174 1.62236C0.807022 1.65313 0.75035 1.68684 0.681982 1.75448C0.422926 2.01078 0.51971 2.4466 0.864814 2.57772C0.942574 2.60728 1.11643 2.60801 8.00017 2.60801C14.8839 2.60801 15.0578 2.60728 15.1355 2.57772C15.2963 2.51665 15.4175 2.37817 15.4561 2.21145C15.5071 1.9908 15.3852 1.75292 15.1682 1.64982L15.0802 1.60801L8.02417 1.60505C2.36563 1.60267 0.955502 1.60609 0.904174 1.62236ZM0.955886 7.50454C0.79067 7.53248 0.642286 7.64856 0.571534 7.8052C0.519246 7.921 0.523326 8.09308 0.581198 8.21134C0.63715 8.32572 0.757614 8.43616 0.868654 8.47489C0.948942 8.50289 1.2251 8.50401 8.00017 8.50401C14.7752 8.50401 15.0514 8.50289 15.1317 8.47489C15.2427 8.43616 15.3632 8.32572 15.4191 8.21134C15.4827 8.08155 15.4827 7.91848 15.4191 7.78868C15.3657 7.67948 15.2461 7.56664 15.1401 7.52548C15.0668 7.49702 14.8226 7.49593 8.04817 7.49384C4.18937 7.49264 0.997838 7.49745 0.955886 7.50454ZM0.86067 13.423C0.703006 13.4847 0.582382 13.624 0.544286 13.7886C0.493214 14.0092 0.61515 14.2471 0.832174 14.3502L0.920174 14.392H8.00017H15.0802L15.1682 14.3502C15.5785 14.1553 15.5583 13.583 15.1355 13.4223C15.0578 13.3927 14.8848 13.392 7.996 13.3928C1.17285 13.3935 0.933646 13.3945 0.86067 13.423Z" fill="currentColor"/>
</svg>