<svg width="32" height="32" viewBox="0 0 32 32" fill="none" xmlns="http://www.w3.org/2000/svg">
<path fill-rule="evenodd" clip-rule="evenodd" d="M7.08398 16.0002C7.08398 11.0756 11.0761 7.0835 16.0007 7.0835C20.9252 7.0835 24.9173 11.0756 24.9173 16.0002C24.9173 20.9247 20.9252 24.9168 16.0007 24.9168C11.0761 24.9168 7.08398 20.9247 7.08398 16.0002ZM16.0007 5.5835C10.2477 5.5835 5.58398 10.2472 5.58398 16.0002C5.58398 21.7531 10.2477 26.4168 16.0007 26.4168C21.7536 26.4168 26.4173 21.7531 26.4173 16.0002C26.4173 10.2472 21.7536 5.5835 16.0007 5.5835ZM16.7507 10.6668C16.7507 10.2526 16.4149 9.91683 16.0007 9.91683C15.5864 9.91683 15.2507 10.2526 15.2507 10.6668V16.0002V16.3108L15.4703 16.5305L18.137 19.1972C18.4299 19.4901 18.9048 19.4901 19.1976 19.1972C19.4905 18.9043 19.4905 18.4294 19.1976 18.1365L16.7507 15.6895V10.6668Z" fill="#4DA2FF"/>
</svg>
