<?xml version="1.0" encoding="utf-8"?>
<svg xmlns="http://www.w3.org/2000/svg" width="40" height="40" viewBox="0 0 40 40" fill="none">
<g clip-path="url(#clip0_2161_2037)">
<path d="M20 0C8.95421 0 0 8.95424 0 20C0 31.0457 8.95421 40 20 40C31.0457 40 40 31.0457 40 20C39.9999 8.95424 31.0455 0 20 0ZM14.6639 29.6691H10.2727V15.4824H14.6639V29.6691ZM12.4474 13.6245C11.0133 13.6245 9.85069 12.4524 9.85069 11.0068C9.85069 9.56104 11.0134 8.38904 12.4474 8.38904C13.8814 8.38904 15.044 9.56104 15.044 11.0068C15.044 12.4525 13.8815 13.6245 12.4474 13.6245ZM31.1199 29.6691H26.75V22.2222C26.75 20.1798 25.9743 19.0396 24.3591 19.0396C22.6015 19.0396 21.6833 20.2271 21.6833 22.2222V29.6691H17.4716V15.4824H21.6833V17.3931C21.6833 17.3931 22.9501 15.0496 25.9583 15.0496C28.9665 15.0496 31.12 16.8864 31.12 20.6862L31.1199 29.6691Z" fill="#F7F7F8"/>
</g>
<defs>
<clipPath id="clip0_2161_2037">
<rect width="40" height="40" fill="white"/>
</clipPath>
</defs>
</svg>