<svg width="40" height="40" viewBox="0 0 40 40" fill="none" xmlns="http://www.w3.org/2000/svg">
<g clip-path="url(#clip0_2107_51655)">
<path fill-rule="evenodd" clip-rule="evenodd" d="M19.34 1.38408C18.4105 1.48004 17.8629 1.59296 17.1 1.84608C14.0457 2.85936 11.7255 5.45584 11.0579 8.60788C10.8929 9.38688 10.8742 9.66728 10.8509 11.7L10.828 13.7L10.424 13.8339C9.13115 14.2626 8.03687 14.9564 6.98003 16.0174C5.76735 17.2349 5.01723 18.5378 4.62399 20.1095C4.33099 21.2804 4.11707 23.7331 4.11719 25.92C4.11723 27.2527 4.15055 27.9516 4.28207 29.38C4.47343 31.4581 4.66983 32.2695 5.28003 33.5037C6.68567 36.3465 9.41663 38.2069 12.58 38.4766C14.7893 38.6648 25.2107 38.6648 27.42 38.4766C30.6012 38.2054 33.3265 36.338 34.7413 33.46C35.2219 32.4823 35.4484 31.6976 35.5984 30.4906C35.9165 27.9313 35.9721 25.2957 35.7586 22.9C35.5848 20.9505 35.454 20.2063 35.1236 19.2895C34.9182 18.7193 34.7765 18.4136 34.4774 17.8954C34.0496 17.1542 33.7288 16.7324 33.1016 16.0862C32.0763 15.0297 30.8918 14.2735 29.5755 13.8348L29.1709 13.7L29.15 11.7C29.127 9.50012 29.0987 9.1742 28.8453 8.1976C27.9285 4.66364 24.9658 2.01144 21.32 1.46112C20.9115 1.39944 19.662 1.35084 19.34 1.38408ZM19.48 3.06296C18.8371 3.13648 18.5678 3.1798 18.2302 3.264C15.2365 4.01092 13.0927 6.37736 12.6138 9.46368C12.5584 9.82092 12.5456 10.2152 12.5431 11.64C12.5401 13.3271 12.5423 13.3798 12.6161 13.3734C13.9961 13.2542 23.2495 13.2124 25.9039 13.3134C26.676 13.3428 27.342 13.3698 27.3839 13.3734C27.4577 13.3798 27.46 13.3266 27.4587 11.64C27.4572 9.79292 27.4425 9.5894 27.2522 8.77996C26.8972 7.26964 26.1144 5.95576 24.96 4.9326C23.8836 3.97852 22.5519 3.3528 21.14 3.13772C20.7425 3.0772 19.7477 3.03236 19.48 3.06296ZM15.08 14.9637C12.2243 15.0343 11.511 15.1419 10.3063 15.6838C8.71163 16.4012 7.38847 17.733 6.66403 19.3498C6.23415 20.3092 6.07567 21.1073 5.90147 23.1902C5.72127 25.3448 5.74379 27.1323 5.98143 29.54C6.13691 31.1149 6.33463 31.8875 6.83011 32.8562C7.87179 34.8926 9.76139 36.2954 12.0371 36.7216C13.6278 37.0195 26.2706 37.0332 27.8873 36.7387C30.1724 36.3225 32.0728 34.9455 33.1216 32.946C33.6543 31.9304 33.8596 31.1508 34.0186 29.54C34.2554 27.1409 34.2781 25.3371 34.0986 23.1902C33.9253 21.1182 33.7637 20.3042 33.336 19.3498C32.6124 17.7348 31.2867 16.4004 29.6938 15.6838C28.8176 15.2897 28.0386 15.1068 26.9578 15.0417C25.0666 14.9276 18.3275 14.8834 15.08 14.9637ZM19.6597 23.5146C19.4595 23.6055 19.2574 23.8316 19.1995 24.0293C19.1697 24.1313 19.1594 24.6977 19.1677 25.783L19.18 27.3859L19.2904 27.5526C19.3511 27.6443 19.4757 27.7689 19.5675 27.8296C19.7075 27.9223 19.7768 27.94 20 27.94C20.2233 27.94 20.2926 27.9223 20.4326 27.8296C20.5243 27.7689 20.649 27.6443 20.7097 27.5526L20.82 27.3859L20.8323 25.783C20.8406 24.6977 20.8304 24.1313 20.8005 24.0293C20.7048 23.7024 20.3497 23.4417 20 23.4417C19.901 23.4417 19.7479 23.4745 19.6597 23.5146Z" fill="#4DA2FF"/>
</g>
<defs>
<clipPath id="clip0_2107_51655">
<rect width="40" height="40" fill="white"/>
</clipPath>
</defs>
</svg>
