<svg xmlns="http://www.w3.org/2000/svg" width="12" height="12" viewBox="0 0 12 12" fill="none">
<g clip-path="url(#clip0_2133_6920)">
<path fill-rule="evenodd" clip-rule="evenodd" d="M5.87101 0.401412C5.82977 0.410784 5.76781 0.433656 5.73333 0.45222C5.65379 0.495036 5.54758 0.600804 5.5054 0.679188C5.43178 0.815976 5.436 0.665208 5.436 3.15835V5.43568L3.129 5.43882L0.822001 5.44198L0.752113 5.47018C0.597457 5.53256 0.456337 5.68153 0.411733 5.82947C0.384565 5.91958 0.384565 6.08038 0.411733 6.17048C0.456337 6.31842 0.597457 6.46739 0.752113 6.52978L0.822001 6.55798L3.12885 6.56113L5.4357 6.56428L5.43885 8.87113L5.442 11.178L5.4702 11.2479C5.53259 11.4025 5.68156 11.5436 5.82949 11.5882C5.9196 11.6154 6.0804 11.6154 6.17051 11.5882C6.31844 11.5436 6.46741 11.4025 6.5298 11.2479L6.558 11.178L6.56116 8.87113L6.5643 6.56428L8.87116 6.56113L11.178 6.55798L11.2479 6.52978C11.4025 6.46739 11.5437 6.31842 11.5883 6.17048C11.6154 6.08038 11.6154 5.91958 11.5883 5.82947C11.5437 5.68153 11.4025 5.53256 11.2479 5.47018L11.178 5.44198L8.87116 5.43882L6.5643 5.43568L6.56116 3.12882L6.558 0.821976L6.5298 0.752088C6.46839 0.599832 6.31854 0.456336 6.17685 0.41406C6.0853 0.38676 5.95853 0.381516 5.87101 0.401412Z" fill="#F7F7F8"/>
</g>
<defs>
<clipPath id="clip0_2133_6920">
<rect width="12" height="12" fill="white"/>
</clipPath>
</defs>
</svg>