<?xml version="1.0" encoding="utf-8"?>
<svg xmlns="http://www.w3.org/2000/svg" color="#F7F7F8" fill="currentColor" viewBox="0 0 142 33">
  <g fill="currentColor" clip-path="url(#a)">
    <path d="M60.127 7.047c.475 0 .887.163 1.226.488.345.325.523.722.523 1.184 0 .462-.178.86-.523 1.185-.34.325-.75.489-1.226.489-.475 0-.89-.164-1.235-.488v-.001a1.588 1.588 0 0 1-.513-1.184c0-.461.173-.859.512-1.184l.001-.002c.346-.324.76-.487 1.235-.487ZM39.535 16.95a7.895 7.895 0 0 1 1.817.97v.001a5.01 5.01 0 0 1 1.46 1.577c.39.653.58 1.447.58 2.374 0 1.073-.282 2.047-.846 2.916-.56.871-1.376 1.56-2.442 2.067-1.064.509-2.35.76-3.85.76-1.398 0-2.618-.226-3.655-.683-1.029-.457-1.845-1.096-2.442-1.92-.59-.825-.923-1.782-1-2.865l-.013-.177h2.742l.013.151c.06.698.293 1.265.692 1.712.413.448.935.786 1.571 1.01a6.47 6.47 0 0 0 2.094.33c.873 0 1.652-.142 2.338-.421.688-.286 1.226-.679 1.62-1.175.39-.497.586-1.075.586-1.743 0-.608-.17-1.088-.495-1.454-.34-.38-.789-.694-1.355-.938a14.69 14.69 0 0 0-1.872-.652h-.002l-2.374-.678c-1.524-.439-2.742-1.067-3.646-1.893-.916-.839-1.372-1.937-1.372-3.279 0-1.112.3-2.089.907-2.923.609-.836 1.424-1.481 2.44-1.938 1.022-.463 2.149-.693 3.412-.693 1.264 0 2.393.227 3.385.684.99.45 1.78 1.07 2.363 1.86a4.67 4.67 0 0 1 .937 2.704l.006.17h-2.58l-.017-.146c-.107-.905-.539-1.603-1.302-2.103-.771-.506-1.724-.765-2.867-.765-.836 0-1.56.136-2.176.401-.612.267-1.083.63-1.42 1.086-.331.454-.496.97-.496 1.55 0 .488.115.897.338 1.236.238.344.54.633.911.866.38.232.778.425 1.194.578.423.15.811.27 1.163.364h.001l1.959.527c.51.133 1.074.317 1.693.551ZM61.386 12.473H58.83v14.802h2.555V12.473ZM53.562 23.332c.373-.55.565-1.259.565-2.14v-8.718h2.555v14.801h-2.555v-2.22a4.994 4.994 0 0 1-1.47 1.614l-.001.001c-.75.533-1.69.794-2.81.794-.929 0-1.762-.203-2.492-.615h-.002c-.734-.42-1.309-1.05-1.724-1.88-.416-.84-.62-1.888-.62-3.135v-9.36h2.555v9.209c0 1.023.285 1.82.84 2.41.563.593 1.279.891 2.16.891.523 0 1.06-.134 1.612-.407.55-.269 1.012-.681 1.387-1.243v-.002Z"/>
    <path fill-rule="evenodd" d="M20.152 13.346v.002a9.538 9.538 0 0 1 2.086 5.965c0 2.255-.804 4.39-2.145 6.038l-.115.142-.03-.18a8.81 8.81 0 0 0-.093-.465c-.67-2.948-2.857-5.476-6.455-7.523-2.43-1.378-3.82-3.038-4.185-4.924-.236-1.22-.06-2.444.278-3.493.339-1.05.843-1.928 1.27-2.457l1.4-1.711c.246-.3.705-.3.95 0l7.04 8.606Zm2.214-1.71L12.985.163a.448.448 0 0 0-.694 0L2.91 11.636l-.03.038a12.433 12.433 0 0 0-2.76 7.828C.12 26.404 5.725 32 12.638 32c6.914 0 12.518-5.596 12.518-12.498 0-2.963-1.033-5.686-2.76-7.828l-.03-.038ZM5.155 13.309l.84-1.027.024.19c.02.15.045.3.074.452.542 2.85 2.482 5.224 5.725 7.064 2.819 1.604 4.46 3.449 4.932 5.472.198.844.233 1.675.148 2.402l-.006.044-.04.02a9.572 9.572 0 0 1-4.214.97c-5.302 0-9.6-4.29-9.6-9.583 0-2.273.793-4.361 2.117-6.004Z" clip-rule="evenodd"/>
  </g>
  <path fill="currentColor" d="M67.957 27V8.09h6.925c1.342 0 2.453.223 3.333.666.88.437 1.539 1.03 1.976 1.782.437.744.656 1.585.656 2.52 0 .788-.145 1.453-.434 1.995-.29.535-.677.966-1.164 1.292-.48.32-1.01.554-1.588.702v.184c.628.031 1.24.234 1.838.61.603.37 1.101.895 1.495 1.579.394.683.591 1.514.591 2.493 0 .966-.228 1.834-.683 2.603-.45.764-1.145 1.37-2.087 1.82-.941.442-2.145.664-3.61.664h-7.248Zm2.853-2.447h4.118c1.367 0 2.345-.264 2.936-.794.591-.53.887-1.19.887-1.985 0-.597-.151-1.145-.453-1.643a3.233 3.233 0 0 0-1.292-1.191c-.554-.296-1.213-.444-1.976-.444h-4.22v6.057Zm0-8.282h3.823c.64 0 1.215-.123 1.726-.369.517-.246.927-.59 1.228-1.034.308-.45.462-.979.462-1.588 0-.782-.274-1.437-.822-1.967-.548-.53-1.388-.794-2.52-.794H70.81v5.752ZM83.707 27V12.818h2.669v2.253h.147a3.428 3.428 0 0 1 1.367-1.8 3.91 3.91 0 0 1 2.234-.665 11.815 11.815 0 0 1 1.173.065v2.64a4.937 4.937 0 0 0-.591-.101 5.636 5.636 0 0 0-.85-.065c-.652 0-1.234.138-1.744.415a3.087 3.087 0 0 0-1.644 2.78V27h-2.76Zm8.939 0V12.818h2.76V27h-2.76Zm1.394-16.37c-.48 0-.892-.16-1.237-.48a1.561 1.561 0 0 1-.508-1.164c0-.455.17-.843.508-1.163.345-.326.757-.49 1.237-.49.48 0 .89.164 1.228.49.345.32.517.708.517 1.163 0 .45-.172.838-.517 1.164-.338.32-.748.48-1.228.48Zm9.35 16.647c-1.145 0-2.167-.292-3.066-.877-.892-.591-1.594-1.431-2.105-2.52-.505-1.096-.757-2.41-.757-3.943s.255-2.844.766-3.933c.517-1.09 1.225-1.924 2.124-2.503.899-.578 1.917-.867 3.056-.867.88 0 1.588.147 2.124.443.541.289.96.627 1.255 1.015.302.388.536.73.702 1.025h.166V8.091h2.761V27h-2.696v-2.207h-.231a7.281 7.281 0 0 1-.72 1.034c-.308.388-.733.727-1.274 1.016-.542.29-1.244.434-2.105.434Zm.609-2.354c.794 0 1.465-.21 2.013-.628.554-.425.972-1.013 1.255-1.764.29-.75.434-1.625.434-2.622 0-.985-.141-1.846-.424-2.585-.284-.739-.699-1.314-1.247-1.727-.548-.412-1.225-.618-2.031-.618-.831 0-1.524.215-2.078.646-.554.43-.972 1.019-1.255 1.764-.277.744-.416 1.585-.416 2.52 0 .948.142 1.8.425 2.558.283.757.702 1.357 1.256 1.8.56.437 1.249.656 2.068.656Zm15.263 7.69c-1.693 0-3.028-.32-4.007-.96-.973-.634-1.647-1.384-2.022-2.252l2.373-.98c.166.272.387.558.664.86.284.307.665.569 1.145.784.487.216 1.111.323 1.875.323 1.046 0 1.911-.255 2.594-.766.683-.505 1.025-1.31 1.025-2.419v-2.788h-.175a6.354 6.354 0 0 1-.721 1.006c-.307.37-.732.69-1.274.96-.541.271-1.246.407-2.114.407-1.12 0-2.13-.262-3.029-.785-.892-.53-1.6-1.308-2.123-2.336-.517-1.034-.776-2.305-.776-3.813s.256-2.801.767-3.878c.517-1.077 1.225-1.902 2.123-2.475.899-.578 1.918-.867 3.056-.867.881 0 1.592.147 2.133.443.542.289.963.627 1.265 1.015.308.388.545.73.711 1.025h.203v-2.299h2.705v14.496c0 1.219-.283 2.219-.849 3-.566.782-1.333 1.361-2.299 1.736-.96.376-2.044.564-3.25.564Zm-.028-8.115c1.194 0 2.108-.413 2.742-1.237.641-.831.961-1.98.961-3.444 0-.954-.142-1.794-.425-2.52-.283-.727-.699-1.293-1.246-1.7-.548-.412-1.225-.618-2.032-.618-.831 0-1.523.215-2.077.646-.554.425-.973 1.003-1.256 1.736-.277.732-.415 1.55-.415 2.456 0 .93.141 1.745.424 2.447.284.701.702 1.249 1.256 1.643.56.394 1.25.59 2.068.59Zm15.201 2.788c-1.397 0-2.601-.298-3.61-.895-1.003-.604-1.779-1.45-2.327-2.54-.541-1.095-.812-2.378-.812-3.85 0-1.452.271-2.733.812-3.84.548-1.108 1.311-1.973 2.29-2.595.985-.622 2.136-.933 3.453-.933.8 0 1.576.133 2.327.398.751.264 1.425.68 2.022 1.246.597.566 1.068 1.302 1.413 2.207.344.898.517 1.99.517 3.277v.98h-11.274v-2.07h8.568c0-.726-.147-1.369-.443-1.929a3.35 3.35 0 0 0-1.246-1.339c-.53-.326-1.151-.489-1.865-.489-.776 0-1.453.19-2.032.572a3.845 3.845 0 0 0-1.329 1.478 4.261 4.261 0 0 0-.462 1.966v1.616c0 .948.166 1.754.499 2.42.338.664.809 1.172 1.412 1.523.604.344 1.308.517 2.115.517.523 0 1-.074 1.431-.222a3.09 3.09 0 0 0 1.117-.683c.314-.302.554-.674.72-1.117l2.613.47a4.735 4.735 0 0 1-1.126 2.023c-.536.572-1.21 1.018-2.022 1.338-.807.314-1.727.471-2.761.471Z"/>
  <defs>
    <clipPath id="a">
      <path fill="currentColor" d="M.12 0h61.76v32H.12z"/>
    </clipPath>
  </defs>
</svg>