<svg width="41" height="40" viewBox="0 0 41 40" fill="none" xmlns="http://www.w3.org/2000/svg">
<path fill-rule="evenodd" clip-rule="evenodd" d="M19.9831 1.4194C19.3966 1.53108 18.8713 1.76924 18.3867 2.1432C18.2657 2.23656 17.7639 2.66556 17.2716 3.09652C16.7793 3.52748 16.3495 3.88008 16.3166 3.88008C16.2837 3.88008 15.6965 3.76824 15.0117 3.63152C13.8356 3.39676 13.7346 3.38288 13.1867 3.38152C12.5734 3.38 12.3463 3.42016 11.8623 3.6156C11.2383 3.86764 10.6077 4.35216 10.2486 4.8554C9.97039 5.2452 9.79602 5.65348 9.34654 6.96756L8.9267 8.195L7.62671 8.64104C6.87107 8.90032 6.18407 9.16188 5.98607 9.26572C5.29551 9.62792 4.74999 10.2057 4.40535 10.9401C4.13799 11.5097 4.08651 11.7595 4.08799 12.4801C4.08919 13.0776 4.09823 13.1451 4.33799 14.3451C4.47479 15.0299 4.58671 15.6066 4.58671 15.6268C4.58671 15.6469 4.22515 16.0767 3.78319 16.5818C2.86579 17.6303 2.69907 17.8386 2.48991 18.1981C1.86187 19.2777 1.88983 20.8009 2.55715 21.86C2.73707 22.1455 2.86755 22.3044 3.78859 23.359L4.61047 24.3001L4.35447 25.5601C4.10335 26.7961 4.09839 26.833 4.09259 27.5001C4.08587 28.2772 4.12075 28.451 4.40583 29.0601C4.74903 29.7934 5.29515 30.372 5.98607 30.7344C6.18383 30.8382 6.87199 31.1003 7.62671 31.3593L8.9267 31.8056L9.36223 33.0728C9.60175 33.7698 9.86034 34.4661 9.9369 34.6201C10.4093 35.5705 11.2562 36.2473 12.3515 36.5495C12.5464 36.6032 12.7484 36.619 13.2067 36.6162C13.7788 36.6128 13.8671 36.6005 15.1059 36.3515L16.4052 36.0904L17.3059 36.8762C18.4072 37.8369 18.5431 37.9478 18.8467 38.1323C19.4299 38.487 19.9474 38.6199 20.7267 38.6154C21.3779 38.6116 21.7279 38.5354 22.2467 38.2845C22.6974 38.0665 22.9986 37.838 24.0418 36.9229C24.5451 36.4813 24.9839 36.1201 25.0168 36.1201C25.0497 36.1201 25.6369 36.2321 26.3217 36.3689C27.5016 36.6048 27.597 36.6178 28.1467 36.6185C28.7597 36.6192 28.9914 36.5783 29.4711 36.3846C30.0975 36.1315 30.7258 35.648 31.0886 35.1395C31.361 34.7578 31.5403 34.3344 31.9889 33.0138L32.3987 31.8075L33.7027 31.3605C34.4683 31.0981 35.1446 30.8407 35.3407 30.7371C36.0373 30.3691 36.5531 29.8295 36.9054 29.1001C37.1943 28.5021 37.2469 28.2576 37.2456 27.5201C37.2445 26.9202 37.2363 26.8589 36.9904 25.6327C36.7386 24.3771 36.7369 24.3644 36.8115 24.2677C36.8529 24.214 37.2495 23.7552 37.6931 23.2482C38.5613 22.2556 38.7578 21.9938 38.9691 21.5477C39.2079 21.0437 39.2793 20.6984 39.2807 20.0401C39.2821 19.3776 39.2087 19.0125 38.9734 18.5108C38.7743 18.0863 38.5356 17.7727 37.5792 16.6785L36.7212 15.6969L36.9781 14.4385C37.2304 13.2023 37.235 13.1681 37.2408 12.5001C37.2477 11.7078 37.2118 11.537 36.9049 10.9001C36.5535 10.1709 36.0367 9.63024 35.3407 9.26356C35.1478 9.162 34.4561 8.89856 33.7037 8.64012L32.4007 8.1926L31.9897 6.98632C31.5388 5.66292 31.3599 5.24084 31.0886 4.86064C30.7258 4.3522 30.0975 3.86864 29.4711 3.6156C28.9797 3.41716 28.763 3.37984 28.1267 3.38412C27.5557 3.38796 27.464 3.40072 26.2278 3.64884L24.929 3.90956L24.0278 3.12448C22.7119 1.97796 22.5742 1.87396 22.0874 1.65868C21.5094 1.40308 20.6074 1.30052 19.9831 1.4194ZM20.2028 3.09688C19.7033 3.21092 19.6211 3.26956 18.1316 4.57588C17.5623 5.07516 17.0275 5.51884 16.9432 5.56188C16.8589 5.60488 16.7215 5.64008 16.638 5.64008C16.5545 5.64008 15.8473 5.51092 15.0664 5.35308C13.8164 5.1004 13.5917 5.06572 13.1867 5.06308L12.7267 5.06008L12.3694 5.23476C11.947 5.44124 11.6685 5.70104 11.4737 6.07039C11.4011 6.20808 11.1176 6.9796 10.8437 7.78487C10.5698 8.5902 10.3096 9.29976 10.2655 9.36176C10.2214 9.42372 10.1263 9.51088 10.0542 9.55544C9.98211 9.6 9.26367 9.86056 8.45763 10.1345C7.65163 10.4084 6.88215 10.6911 6.74775 10.7628C6.31767 10.992 5.93323 11.4864 5.80115 11.9801C5.69491 12.3772 5.72955 12.7048 6.04671 14.3014C6.21171 15.132 6.34631 15.8676 6.34583 15.9359C6.34427 16.1575 6.20559 16.3762 5.71995 16.923C4.47939 18.3197 4.05935 18.8274 3.92895 19.0873C3.62047 19.7022 3.65591 20.469 4.01851 21.0265C4.08115 21.1228 4.59011 21.7241 5.14955 22.3628C5.70899 23.0014 6.20719 23.5979 6.25671 23.6883C6.30963 23.785 6.34671 23.9218 6.34671 24.0206C6.34671 24.1129 6.21171 24.8681 6.04671 25.6988C5.72955 27.2954 5.69491 27.6229 5.80115 28.0201C5.93323 28.5138 6.31767 29.0082 6.74775 29.2374C6.88215 29.309 7.65163 29.5918 8.45763 29.8657C9.26367 30.1396 9.98211 30.4002 10.0542 30.4447C10.1263 30.4893 10.2214 30.5764 10.2655 30.6384C10.3096 30.7004 10.5698 31.41 10.8437 32.2153C11.1176 33.0206 11.4011 33.7921 11.4737 33.9298C11.6685 34.2991 11.947 34.5589 12.3694 34.7654L12.7267 34.9401L13.1867 34.9371C13.5917 34.9344 13.8164 34.8998 15.0664 34.6471C15.8473 34.4892 16.5763 34.3608 16.6864 34.3618C16.7966 34.3627 16.9434 34.3942 17.0128 34.4318C17.0821 34.4693 17.661 34.9567 18.2991 35.5147C18.9373 36.0728 19.5375 36.5812 19.6331 36.6446C20.1608 36.9948 20.9427 37.0435 21.5328 36.763C21.8248 36.6241 21.9284 36.5411 23.2018 35.4243C23.7711 34.925 24.3059 34.4813 24.3902 34.4383C24.4745 34.3953 24.6119 34.3601 24.6954 34.3601C24.7789 34.3601 25.4861 34.4892 26.267 34.6471C27.517 34.8998 27.7417 34.9344 28.1467 34.9371L28.6067 34.9401L28.964 34.7654C29.4145 34.5452 29.6789 34.2894 29.8797 33.8796C29.9605 33.7148 30.2427 32.9436 30.507 32.1657C30.7713 31.3878 31.0236 30.7006 31.0678 30.6385C31.112 30.5765 31.2071 30.4893 31.2792 30.4447C31.3513 30.4002 32.0697 30.1396 32.8758 29.8657C33.6818 29.5918 34.4513 29.309 34.5857 29.2374C35.0157 29.0082 35.4002 28.5138 35.5323 28.0201C35.6388 27.6217 35.6041 27.2936 35.2867 25.7014C35.1217 24.8736 34.9871 24.1387 34.9876 24.0682C34.9891 23.842 35.1275 23.6226 35.6123 23.0773C37.331 21.1446 37.4917 20.9232 37.5873 20.3562C37.6671 19.8833 37.5592 19.3402 37.3112 18.9664C37.2478 18.8709 36.7394 18.2716 36.1813 17.6345C35.6233 16.9974 35.1262 16.4023 35.0767 16.3119C35.022 16.212 34.9867 16.0786 34.9867 15.972C34.9867 15.8754 35.1217 15.1201 35.2867 14.2935C35.604 12.704 35.6386 12.3776 35.5323 11.9801C35.3917 11.4545 35.0013 10.9703 34.5325 10.7398C34.3753 10.6624 33.6085 10.3826 32.8284 10.1178C32.0483 9.853 31.3512 9.59992 31.2791 9.5554C31.2071 9.51088 31.112 9.42368 31.0678 9.36164C31.0236 9.2996 30.7713 8.61236 30.507 7.83448C30.2427 7.05656 29.9605 6.28532 29.8797 6.1206C29.6789 5.71072 29.4145 5.45496 28.964 5.23476L28.6067 5.06008L28.1467 5.06308C27.7417 5.06572 27.517 5.1004 26.267 5.35308C25.4861 5.51092 24.7571 5.63932 24.647 5.6384C24.5368 5.63748 24.39 5.606 24.3206 5.5684C24.2513 5.53084 23.6711 5.04236 23.0314 4.48292C22.3916 3.92348 21.7894 3.41452 21.6931 3.35188C21.2925 3.09124 20.6837 2.98712 20.2028 3.09688ZM26.4017 13.2035C26.2246 13.2549 25.7005 13.7222 24.7033 14.7179C23.4958 15.9237 22.7203 16.833 21.8931 18.0128C20.8319 19.5264 19.8572 21.4371 18.9449 23.7921L18.6923 24.4442L18.5828 24.3321C18.5225 24.2705 17.7426 23.4641 16.8497 22.5401C15.8462 21.5018 15.1627 20.8257 15.0601 20.7701C14.8671 20.6654 14.5371 20.6492 14.3354 20.7345C14.0578 20.8518 13.8285 21.1982 13.8285 21.5001C13.8285 21.7895 13.9523 21.9681 14.6545 22.691C15.0242 23.0716 16.0446 24.124 16.922 25.0295C17.874 26.0121 18.5739 26.7028 18.6577 26.7426C18.9981 26.9042 19.3341 26.8492 19.6014 26.5882C19.7502 26.4429 19.7994 26.3469 19.9642 25.8801C21.1197 22.6076 22.2521 20.3153 23.6159 18.4884C24.3854 17.4574 25.3944 16.3518 26.6391 15.1755C27.0089 14.826 27.3464 14.4839 27.3891 14.4153C27.5788 14.1105 27.5219 13.693 27.2542 13.4257C27.0169 13.1888 26.7197 13.1114 26.4017 13.2035Z" fill="#4DA2FF"/>
</svg>
