<?xml version="1.0" encoding="utf-8"?>
<svg xmlns="http://www.w3.org/2000/svg" width="40" height="40" viewBox="0 0 40 40" fill="none">
<g clip-path="url(#clip0_2161_2032)">
<path fill-rule="evenodd" clip-rule="evenodd" d="M20 40C31.0457 40 40 31.0457 40 20C40 8.9543 31.0457 0 20 0C8.9543 0 0 8.9543 0 20C0 31.0457 8.9543 40 20 40ZM15.525 28.2528L20.3298 28.3405C20.3374 28.3405 20.3528 28.3405 20.3526 28.3524C23.0283 28.4023 25.6351 28.2455 28.3032 28.0509C30.4327 27.902 30.9374 26.3598 31.2011 24.5208C31.5299 22.2997 31.6025 20.0519 31.4305 17.8156C31.4222 17.7095 31.4143 17.6026 31.4061 17.4949C31.2459 15.3551 31.0658 12.9504 28.5326 12.5071C27.9936 12.4116 27.4434 12.3278 26.8968 12.3124C21.7213 12.145 16.4998 12.1025 11.3127 12.4613C9.77616 12.5601 8.78256 13.4686 8.53009 14.9911C8.08286 17.7045 7.99111 20.4905 8.22811 23.2266C8.23106 23.2601 8.23401 23.2937 8.23697 23.3274C8.40639 25.2522 8.60434 27.5014 10.8846 27.9665C12.1122 28.2214 13.3621 28.2316 14.6144 28.2419C14.9179 28.2444 15.2215 28.2467 15.525 28.2528ZM19.9985 22.2544C19.1709 22.7292 18.3412 23.2052 17.505 23.6846V16.823C18.4272 17.3511 19.343 17.8769 20.2598 18.4031C21.3302 19.0176 22.402 19.633 23.4871 20.2539C22.3194 20.9225 21.1609 21.5874 19.9985 22.2544Z" fill="#F7F7F8"/>
</g>
<defs>
<clipPath id="clip0_2161_2032">
<rect width="40" height="40" fill="white"/>
</clipPath>
</defs>
</svg>